<?xml version="1.0" standalone="no"?>
<!DOCTYPE svg PUBLIC "-//W3C//DTD SVG 20010904//EN"
 "http://www.w3.org/TR/2001/REC-SVG-20010904/DTD/svg10.dtd">
<svg version="1.0" xmlns="http://www.w3.org/2000/svg"
 width="300.000000pt" height="35.000000pt" viewBox="0 0 300.000000 35.000000"
 preserveAspectRatio="xMidYMid meet">
<metadata>
Created by potrace 1.10, written by Peter Selinger 2001-2011
</metadata>
<g transform="translate(0.000000,35.000000) scale(0.100000,-0.100000)"
fill="#000000" stroke="none">
<path d="M0 333 c0 -5 44 -9 98 -9 159 -2 351 -50 547 -136 373 -165 401 -171
825 -170 424 1 470 10 770 145 287 129 548 185 718 154 34 -6 42 -4 42 8 0 13
-168 15 -1500 15 -825 0 -1500 -3 -1500 -7z m1459 -14 c600 0 1119 2 1153 5
l63 6 -85 -23 c-140 -39 -218 -67 -355 -129 -304 -138 -380 -152 -818 -146
-298 5 -316 6 -411 31 -54 15 -151 50 -215 78 -197 87 -310 130 -410 155 -118
30 -131 36 -65 29 29 -3 543 -6 1143 -6z"/>
<path d="M288 3 c161 -2 422 -2 580 0 158 1 26 2 -293 2 -319 0 -448 -1 -287
-2z"/>
<path d="M2098 3 c166 -2 438 -2 605 0 166 1 30 2 -303 2 -333 0 -469 -1 -302
-2z"/>
</g>
</svg>
