<?xml version="1.0" standalone="no"?>
<!DOCTYPE svg PUBLIC "-//W3C//DTD SVG 20010904//EN"
 "http://www.w3.org/TR/2001/REC-SVG-20010904/DTD/svg10.dtd">
<svg version="1.0" xmlns="http://www.w3.org/2000/svg"
 width="300.000000pt" height="116.000000pt" viewBox="0 0 300.000000 116.000000"
 preserveAspectRatio="xMidYMid meet">
<metadata>
Created by potrace 1.10, written by Peter Selinger 2001-2011
</metadata>
<g transform="translate(0.000000,116.000000) scale(0.100000,-0.100000)"
fill="#3838ee" stroke="none">
<path d="M950 1115 c-174 -13 -217 -17 -380 -36 -133 -15 -354 -48 -431 -64
-39 -8 -72 -15 -75 -15 -2 0 -4 -112 -4 -250 l0 -250 1438 0 1437 0 0 249 0
249 -110 21 c-98 19 -164 29 -275 45 -65 10 -325 37 -400 42 -41 3 -91 7 -110
10 -81 12 -921 11 -1090 -1z m960 -16 c63 -4 158 -10 210 -14 243 -15 673 -71
664 -86 -2 -4 8 -6 23 -5 16 2 33 0 39 -6 7 -5 16 -8 20 -7 45 8 44 12 44
-230 l0 -229 -88 -1 c-49 -1 -96 1 -106 5 -16 6 -16 8 -1 24 15 17 15 20 0 43
-9 14 -26 28 -38 32 -24 8 -20 9 44 20 33 5 39 11 59 58 33 75 32 153 -3 206
-15 23 -31 41 -36 41 -10 0 -65 -60 -79 -86 -7 -13 -7 -26 -1 -35 16 -26 9
-29 -81 -28 -49 0 -90 4 -90 8 0 4 -13 22 -28 40 -34 41 -57 37 -95 -16 l-26
-36 25 -43 26 -44 -21 -28 c-34 -48 -164 -84 -217 -60 -27 13 -27 13 -4 18 13
3 33 18 44 34 17 23 21 41 20 109 0 69 -4 88 -25 119 -13 21 -31 38 -40 38 -9
0 -33 -20 -54 -45 -36 -44 -36 -47 -21 -70 l16 -25 -78 0 -79 0 -38 91 c-20
50 -44 93 -51 96 -18 7 -43 -14 -55 -45 -5 -13 -13 -21 -18 -18 -10 6 1 -57
17 -96 l12 -28 -61 0 c-38 0 -69 6 -84 16 -23 15 -25 15 -45 -18 -25 -41 -25
-95 0 -128 18 -24 23 -25 127 -25 59 1 117 2 128 3 21 2 138 -14 120 -17 -6 0
-16 -11 -23 -22 -12 -19 -10 -25 18 -54 l31 -32 -701 0 c-385 0 -712 2 -725 5
-24 4 -23 5 21 49 25 26 43 52 40 59 -6 15 -16 14 313 15 75 1 137 -4 149 -10
26 -14 72 -14 72 -1 0 6 29 10 67 10 55 0 71 4 90 22 27 26 30 76 9 158 -9 34
-11 59 -5 65 16 16 10 37 -18 62 -51 43 -98 13 -76 -49 7 -18 14 -44 17 -58 2
-14 9 -38 15 -53 20 -51 15 -67 -21 -67 -24 0 -40 8 -58 29 -40 48 -71 49
-118 7 -35 -32 -46 -36 -91 -36 -31 0 -50 4 -46 10 9 15 -23 57 -55 70 -34 14
-34 14 -20 40 8 15 6 24 -10 40 -24 24 -53 26 -71 4 -10 -12 -10 -20 -1 -35
17 -27 15 -37 -9 -44 -26 -9 -53 -66 -36 -77 7 -4 -15 -8 -48 -8 -48 0 -64 4
-78 20 -23 27 -47 15 -47 -24 0 -18 5 -37 11 -43 17 -17 4 -40 -33 -63 -43
-26 -92 -26 -118 0 -11 11 -26 20 -34 20 -8 0 -18 5 -21 10 -4 6 13 10 45 10
68 0 84 16 78 80 -5 50 -25 80 -53 80 -24 0 -29 -26 -11 -61 9 -18 16 -33 16
-34 0 -2 -164 1 -187 4 -7 0 -13 6 -13 12 0 6 7 9 15 5 8 -3 15 -1 15 4 0 6
-7 10 -15 10 -17 0 -20 16 -5 25 11 7 4 25 -10 25 -14 0 -22 -58 -10 -79 10
-19 20 -21 120 -21 116 0 126 5 95 46 -8 10 -15 27 -15 37 0 32 18 18 35 -27
20 -51 9 -85 -28 -87 -79 -4 -166 -2 -189 4 -46 12 -55 92 -15 136 l22 24 -22
-12 c-30 -15 -43 -42 -43 -86 0 -47 39 -85 86 -85 36 0 45 -14 17 -24 -14 -6
-12 -11 12 -36 35 -37 62 -38 77 -5 13 29 32 34 23 6 -7 -23 14 -61 34 -61 8
0 11 -3 8 -6 -9 -9 -304 -17 -344 -9 l-33 6 0 223 0 223 67 16 c60 14 109 22
243 42 187 26 532 56 810 69 124 6 596 2 710 -5z m-35 -218 l38 -100 103 -3
c57 -2 104 -1 104 2 0 3 -8 19 -19 36 -18 30 -18 30 3 56 11 14 26 34 32 44
10 18 13 17 31 -14 27 -44 36 -125 20 -186 l-12 -48 -140 1 c-113 1 -142 5
-152 17 -10 14 -12 14 -20 -1 -8 -13 -27 -15 -123 -13 -134 4 -142 9 -122 85
16 58 19 61 35 40 9 -12 33 -17 95 -19 45 -2 82 -2 82 -1 0 0 -10 27 -22 58
l-22 57 25 44 c13 24 24 44 25 44 0 0 18 -45 39 -99z m-545 39 c0 -3 -5 -11
-11 -17 -9 -9 -8 -28 5 -77 32 -129 23 -149 -70 -152 -37 -2 -72 -8 -77 -13
-19 -19 -56 -12 -73 14 -15 23 -19 24 -33 11 -12 -10 -40 -13 -116 -10 -55 2
-109 3 -120 3 -11 0 -61 -1 -112 -2 l-91 -2 -6 -29 c-3 -16 -23 -44 -43 -63
-34 -32 -41 -35 -86 -30 -26 2 -56 11 -65 20 -22 23 -10 30 23 13 32 -17 71
-7 123 31 37 27 39 39 15 88 -19 41 -11 57 14 27 16 -18 31 -21 121 -24 103
-3 128 7 64 27 -35 10 -42 34 -17 55 23 19 112 7 137 -18 l21 -20 -26 -24 -26
-24 92 4 c65 3 94 9 100 18 17 29 52 55 72 52 11 -2 29 -17 40 -35 19 -30 24
-32 79 -33 l58 0 -7 38 c-3 20 -18 74 -31 119 -14 46 -22 87 -19 93 6 9 65
-27 65 -40z m1435 -30 c21 -48 21 -106 -1 -172 l-16 -48 -137 0 -137 0 -18
-32 c-60 -100 -122 -121 -228 -76 -46 20 -69 46 -29 33 26 -8 109 14 151 40
76 48 83 76 35 133 l-23 27 33 40 33 39 23 -46 22 -47 119 -3 c65 -2 118 -1
118 2 0 3 -8 19 -19 35 l-18 30 30 43 c17 23 33 42 37 42 4 0 15 -18 25 -40z
m-1916 -36 c-8 -10 -16 -11 -30 -3 -22 11 -24 20 -7 37 17 17 53 -15 37 -34z
m-465 -233 c11 -17 -21 -33 -43 -21 -24 12 -26 21 -9 38 11 11 41 2 52 -17z
m1696 4 c20 18 21 18 55 -15 l35 -34 -24 -25 c-23 -23 -26 -23 -49 -8 -22 14
-27 14 -37 2 -16 -20 -19 -19 -60 16 l-35 29 30 24 c27 22 31 23 48 9 15 -15
19 -14 37 2z m501 -12 l-30 -28 21 -22 c26 -27 18 -41 -24 -38 -18 1 -62 2
-98 3 l-64 2 30 28 c17 16 39 40 49 55 16 25 23 27 81 27 l64 0 -29 -27z m97
-13 l33 -30 -28 -24 c-30 -26 -37 -24 -82 14 l-24 21 23 24 c30 32 38 31 78
-5z m-434 -69 c3 -4 -17 -7 -44 -6 -45 0 -47 1 -33 17 12 13 20 14 44 6 16 -5
31 -13 33 -17z m-1697 -7 c-3 -3 -12 -4 -19 -1 -8 3 -5 6 6 6 11 1 17 -2 13
-5z"/>
<path d="M1385 977 c-22 -17 -22 -48 3 -182 27 -149 34 -164 62 -130 17 21 20
75 8 152 -6 38 -12 77 -13 88 -3 27 -22 72 -33 79 -5 3 -17 0 -27 -7z m40 -93
c17 -90 20 -214 5 -214 -5 0 -10 19 -10 43 0 23 -7 73 -15 112 -16 75 -19 128
-8 138 10 11 12 6 28 -79z"/>
<path d="M831 751 c13 -10 29 -16 36 -14 29 11 3 33 -39 33 -19 0 -19 -1 3
-19z"/>
<path d="M1105 730 c-4 -6 4 -19 17 -30 26 -22 28 -23 46 -11 12 7 12 12 1 30
-14 22 -53 29 -64 11z"/>
<path d="M220 224 l0 -114 30 0 c28 0 30 2 30 40 l0 40 45 0 c37 0 51 5 71 27
23 25 26 47 10 85 -11 24 -32 30 -113 34 l-73 3 0 -115z m44 28 c-3 -108 -4
-125 -9 -120 -11 10 -10 178 0 178 6 0 9 -25 9 -58z m114 46 c14 -14 16 -64 2
-73 -6 -4 -7 5 -4 23 4 20 1 34 -11 45 -9 10 -13 17 -8 17 5 0 14 -5 21 -12z
m-29 -12 c27 -17 6 -53 -37 -62 -32 -6 -32 -6 -32 35 0 39 1 40 29 37 15 -2
33 -6 40 -10z"/>
<path d="M524 330 c-36 -14 -64 -59 -64 -102 0 -79 41 -118 126 -118 39 0 51
5 80 34 28 28 34 41 34 78 0 24 -7 54 -16 66 -31 45 -105 64 -160 42z m-8 -42
c-24 -34 -21 -107 7 -137 18 -21 19 -23 2 -11 -31 23 -35 32 -35 84 0 32 6 56
17 68 22 25 27 23 9 -4z m160 -43 c3 -19 0 -45 -10 -66 -10 -21 -13 -24 -9 -9
11 43 4 102 -14 124 -18 21 -18 21 4 2 13 -10 25 -33 29 -51z m-52 33 c36 -51
10 -128 -42 -128 -38 0 -62 27 -62 69 0 49 24 81 60 81 18 0 34 -8 44 -22z"/>
<path d="M794 326 c-77 -34 -49 -115 45 -130 46 -7 61 -24 37 -42 -20 -14 -72
-9 -103 12 -13 8 -23 13 -24 12 -15 -50 6 -68 80 -68 64 0 98 13 113 45 23 50
-6 77 -105 99 -20 5 -27 12 -25 24 4 23 60 28 98 8 30 -14 30 -14 30 14 0 23
-5 29 -31 34 -47 9 -80 7 -115 -8z m-6 -56 c1 -16 -2 -30 -8 -30 -11 0 -14 43
-3 53 9 10 8 10 11 -23z m80 -45 c49 -8 69 -33 52 -65 -14 -27 -22 -25 -15 3
8 32 -4 44 -54 54 -25 4 -47 15 -49 23 -4 12 -2 13 9 4 8 -7 33 -15 57 -19z"/>
<path d="M980 312 c0 -22 3 -24 35 -18 l35 7 0 -96 0 -95 30 0 30 0 0 96 0 96
40 -7 c38 -6 40 -6 40 19 l0 26 -105 -2 c-104 -2 -105 -2 -105 -26z m112 -14
c-9 -9 -15 -9 -24 0 -9 9 -7 12 12 12 19 0 21 -3 12 -12z m-5 -130 c-2 -24 -4
-7 -4 37 0 44 2 63 4 43 2 -21 2 -57 0 -80z"/>
<path d="M1235 224 l0 -114 85 0 c79 0 86 2 87 20 2 18 -4 20 -58 20 -59 0
-59 0 -59 30 0 30 1 30 55 30 48 0 55 2 55 20 0 18 -7 20 -54 20 -52 0 -54 1
-58 29 -3 18 0 28 5 24 6 -3 34 -7 64 -9 49 -3 53 -2 53 20 0 22 -3 23 -88 23
l-87 1 0 -114z m55 -1 c0 -2 -4 -1 -10 2 -6 4 -11 -14 -12 -47 -1 -51 -2 -50
-7 17 -3 39 -4 74 -2 78 3 7 31 -38 31 -50z"/>
<path d="M1590 225 c0 -98 2 -115 16 -115 13 0 15 14 12 95 -2 52 -1 95 2 95
3 0 19 -28 35 -62 17 -34 35 -63 40 -65 6 -1 23 27 39 62 16 36 32 65 35 65 3
0 5 -43 3 -95 -3 -81 -1 -95 12 -95 14 0 16 17 16 115 0 109 -1 115 -21 115
-15 0 -27 -16 -51 -67 l-30 -68 -34 68 c-25 49 -40 67 -54 67 -19 0 -20 -7
-20 -115z"/>
<path d="M1895 233 c-22 -59 -41 -111 -43 -115 -2 -4 4 -8 12 -8 9 0 19 8 22
18 12 39 20 45 68 46 46 1 50 -1 64 -31 9 -18 22 -33 30 -33 7 0 12 4 10 8 -1
5 -21 57 -43 115 -54 145 -66 145 -120 0z m84 20 l21 -53 -45 0 -45 0 20 50
c11 28 20 54 20 57 0 13 9 -4 29 -54z"/>
<path d="M2110 225 c0 -96 3 -115 15 -115 11 0 15 12 15 45 0 41 2 45 24 45
16 0 37 -15 63 -46 24 -29 45 -45 56 -43 13 3 7 14 -26 50 l-43 45 23 18 c16
12 23 27 23 52 0 31 -4 37 -35 50 -19 7 -53 14 -75 14 l-40 0 0 -115z m118 68
c18 -36 -12 -73 -60 -73 -27 0 -28 2 -28 45 l0 45 40 0 c27 0 42 -5 48 -17z"/>
<path d="M2382 324 c-33 -23 -50 -64 -47 -110 6 -73 40 -104 116 -104 58 0 99
44 99 106 0 23 -5 55 -12 69 -23 50 -109 72 -156 39z m113 -29 c34 -33 35
-108 3 -142 -23 -24 -66 -30 -97 -13 -48 25 -51 123 -4 160 34 27 69 25 98 -5z"/>
<path d="M2649 317 c-45 -30 -59 -81 -38 -140 16 -49 46 -67 107 -67 50 0 82
14 82 37 0 14 -2 14 -25 -1 -32 -21 -84 -20 -114 3 -16 12 -25 31 -28 64 -5
42 -3 49 26 78 28 27 37 31 68 26 19 -4 44 -14 54 -23 18 -16 19 -16 19 5 0
44 -96 55 -151 18z"/>
</g>
</svg>
